<?xml version="1.0" standalone="no"?>
<!DOCTYPE svg PUBLIC "-//W3C//DTD SVG 20010904//EN"
 "http://www.w3.org/TR/2001/REC-SVG-20010904/DTD/svg10.dtd">
<svg version="1.0" xmlns="http://www.w3.org/2000/svg"
 width="1200.000000pt" height="1200.000000pt" viewBox="0 0 1200.000000 1200.000000"
 preserveAspectRatio="xMidYMid meet">
<metadata>
Created by potrace 1.11, written by Peter Selinger 2001-2013
</metadata>
<g transform="translate(0.000000,1200.000000) scale(0.100000,-0.100000)"
fill="#000000" stroke="none">
<path d="M4835 11989 c-17 -8 -87 -104 -105 -143 -3 -6 -21 -36 -41 -66 -80
-122 -107 -165 -107 -174 0 -5 -4 -12 -9 -15 -12 -9 -83 -119 -83 -130 0 -5
-3 -11 -7 -13 -10 -4 -113 -167 -113 -178 0 -5 -3 -10 -8 -12 -11 -5 -95 -141
-95 -155 0 -7 -3 -10 -7 -8 -4 2 -13 -8 -21 -23 -8 -15 -35 -59 -61 -99 -27
-39 -48 -74 -48 -78 0 -3 -5 -11 -10 -18 -25 -30 -60 -89 -60 -102 0 -8 -4
-15 -8 -15 -5 0 -19 -20 -32 -45 -13 -25 -27 -45 -32 -45 -4 0 -8 -7 -8 -15 0
-8 -4 -15 -10 -15 -5 0 -9 -3 -8 -7 1 -5 -10 -26 -24 -49 -118 -183 -188 -297
-188 -304 0 -5 -3 -10 -7 -12 -12 -5 -53 -66 -53 -77 0 -5 -6 -16 -13 -23 -22
-23 -67 -98 -60 -98 5 0 3 -4 -3 -8 -11 -8 -74 -97 -74 -106 0 -3 -17 -31 -38
-63 -88 -133 -132 -203 -132 -211 0 -5 -9 -17 -20 -27 -11 -10 -20 -23 -20
-29 -1 -6 -14 -27 -30 -46 -17 -19 -30 -40 -30 -47 0 -7 -4 -13 -10 -13 -5 0
-10 -5 -10 -11 0 -6 -13 -30 -30 -54 -16 -24 -30 -48 -30 -54 0 -6 -4 -11 -8
-11 -4 0 -16 -15 -26 -32 -11 -18 -38 -62 -61 -98 -58 -92 -72 -114 -76 -125
-1 -5 -11 -19 -21 -29 -10 -11 -18 -26 -18 -33 0 -7 -4 -13 -10 -13 -5 0 -10
-7 -10 -15 0 -8 -4 -15 -10 -15 -5 0 -12 -11 -16 -25 -3 -14 -9 -25 -13 -25
-3 0 -17 -20 -31 -45 -14 -25 -28 -45 -32 -45 -5 0 -8 -4 -8 -9 0 -9 -78 -140
-90 -151 -3 -3 -23 -34 -44 -70 -22 -36 -44 -68 -50 -72 -7 -5 -7 -8 -1 -8 6
0 1 -7 -9 -15 -11 -8 -17 -15 -13 -15 6 0 -31 -61 -53 -87 -5 -7 -18 -29 -27
-50 -10 -21 -24 -42 -30 -46 -7 -4 -13 -13 -13 -19 0 -6 -17 -36 -37 -67 -21
-31 -37 -58 -37 -61 0 -3 -8 -14 -18 -24 -18 -20 -22 -32 -18 -51 1 -5 -2 -7
-5 -3 -4 4 -36 -39 -71 -95 -35 -56 -68 -109 -74 -117 -34 -51 -90 -141 -90
-146 0 -3 -9 -14 -20 -26 -10 -12 -17 -25 -14 -30 3 -4 1 -8 -4 -8 -5 0 -15
-12 -23 -27 -8 -16 -16 -30 -19 -33 -13 -12 -60 -90 -54 -90 3 0 -2 -7 -10
-16 -9 -8 -28 -36 -43 -62 -15 -26 -31 -48 -35 -50 -4 -2 -8 -8 -8 -13 0 -4
-20 -40 -45 -78 -25 -38 -45 -72 -45 -76 0 -3 -9 -16 -21 -28 -11 -12 -44 -59
-72 -105 -29 -45 -69 -108 -89 -140 -20 -31 -51 -79 -68 -107 -104 -170 -124
-200 -132 -203 -4 -2 -8 -9 -8 -16 0 -7 -12 -28 -26 -47 -14 -19 -30 -43 -35
-54 -11 -25 -32 -58 -40 -65 -4 -3 -15 -19 -25 -37 -40 -66 -123 -199 -133
-210 -6 -7 -11 -17 -11 -23 0 -5 -4 -10 -9 -10 -5 0 -11 -8 -14 -17 -6 -18
-37 -74 -47 -83 -33 -32 -68 -109 -64 -144 2 -22 39 -84 63 -106 4 -3 22 -27
41 -55 19 -27 38 -51 42 -53 4 -2 8 -10 8 -17 0 -7 3 -15 8 -17 4 -1 29 -32
55 -68 49 -67 65 -88 114 -152 15 -20 39 -53 53 -73 14 -20 35 -47 48 -60 12
-13 22 -27 22 -30 0 -6 50 -75 61 -85 3 -3 43 -57 89 -120 46 -63 90 -121 97
-128 7 -7 13 -17 13 -20 0 -4 11 -20 25 -35 14 -15 22 -27 18 -27 -4 0 -3 -4
3 -8 9 -6 289 -379 354 -472 14 -19 33 -43 42 -52 10 -10 18 -21 18 -25 0 -5
16 -26 35 -48 19 -22 35 -43 35 -46 0 -3 8 -15 18 -27 46 -54 52 -63 52 -71 0
-5 7 -15 16 -22 9 -8 28 -31 41 -52 13 -21 31 -46 41 -56 9 -9 37 -46 61 -81
47 -68 66 -93 93 -122 10 -10 15 -18 12 -18 -3 0 1 -6 8 -14 7 -8 24 -31 38
-51 14 -20 38 -51 55 -68 16 -18 28 -33 26 -35 -1 -2 7 -15 18 -30 20 -26 147
-196 177 -237 8 -11 28 -39 45 -62 17 -24 36 -43 42 -43 5 0 8 -3 4 -6 -5 -5
34 -66 53 -84 3 -3 17 -21 30 -40 27 -38 48 -65 68 -85 6 -8 12 -16 12 -19 0
-5 48 -72 83 -116 7 -8 23 -31 36 -50 13 -19 29 -39 35 -45 6 -5 23 -28 39
-51 15 -22 36 -50 47 -62 11 -12 20 -25 20 -29 0 -5 14 -23 30 -42 17 -18 37
-46 46 -62 8 -17 22 -33 30 -36 7 -3 14 -10 14 -17 0 -10 26 -45 64 -88 9 -10
16 -22 16 -28 0 -5 5 -10 10 -10 6 0 10 -5 10 -11 0 -6 6 -16 13 -23 6 -7 20
-24 30 -37 101 -140 263 -355 269 -357 5 -2 8 -10 8 -18 0 -8 5 -14 10 -14 6
0 10 -4 10 -10 0 -5 8 -18 18 -28 9 -10 24 -29 32 -42 8 -13 27 -38 43 -55 15
-18 27 -38 27 -44 0 -6 4 -11 8 -11 5 0 23 -21 40 -47 17 -27 39 -57 49 -68
10 -11 29 -37 43 -57 14 -21 28 -38 33 -38 4 0 7 -5 7 -11 0 -6 6 -16 13 -23
6 -8 19 -24 27 -36 8 -13 23 -32 33 -42 9 -10 17 -22 17 -26 0 -4 15 -25 34
-46 19 -20 35 -40 34 -42 0 -3 9 -17 21 -30 12 -13 21 -29 21 -34 0 -6 4 -10
8 -10 4 0 20 -19 35 -43 15 -24 40 -57 56 -74 16 -18 26 -34 23 -37 -3 -3 0
-6 6 -6 7 0 12 -7 12 -15 0 -8 4 -15 8 -15 4 0 15 -12 24 -27 10 -16 28 -41
42 -58 14 -16 30 -35 36 -42 5 -7 10 -15 10 -17 0 -3 7 -14 15 -23 34 -42 264
-353 260 -353 -2 0 6 -11 18 -24 12 -13 29 -33 37 -44 165 -231 181 -245 245
-218 20 9 39 26 45 41 5 14 15 25 21 25 7 0 10 3 6 6 -3 3 10 28 29 55 19 27
34 53 34 59 0 5 5 10 10 10 6 0 10 7 10 15 0 8 5 15 10 15 6 0 10 5 10 10 0 6
26 50 57 98 32 48 58 91 58 95 0 4 5 11 10 15 6 4 16 18 23 32 32 62 44 80 53
80 5 0 9 5 9 11 0 6 15 34 33 62 76 119 87 137 87 147 0 5 4 10 8 10 4 0 24
27 43 60 18 33 37 60 42 60 4 0 7 4 7 9 0 10 79 142 91 151 3 3 8 11 11 19 2
9 19 -6 43 -40 45 -62 42 -57 95 -126 22 -29 40 -57 40 -63 0 -5 3 -10 8 -10
4 0 22 -23 41 -50 19 -28 38 -50 43 -50 4 0 8 -5 8 -10 0 -6 5 -16 10 -23 6
-7 48 -61 92 -122 45 -60 85 -112 90 -113 4 -2 8 -8 8 -12 0 -5 30 -49 68 -98
37 -50 76 -102 87 -117 11 -16 26 -34 33 -41 6 -7 12 -17 12 -22 0 -6 3 -12 8
-14 4 -1 38 -46 76 -98 38 -52 72 -97 75 -100 3 -3 17 -21 31 -40 13 -19 28
-39 32 -45 56 -71 88 -116 88 -123 0 -11 48 -35 75 -38 33 -3 94 41 95 69 0 5
11 23 25 41 14 18 25 38 25 44 0 7 3 12 8 12 4 0 21 23 37 51 17 28 37 62 45
75 8 13 67 105 130 206 63 101 118 188 123 193 7 10 22 32 101 158 20 31 36
62 36 67 0 6 3 10 8 10 4 0 18 20 32 45 14 25 28 45 33 45 4 0 5 5 2 10 -3 6
-1 10 4 10 6 0 11 4 11 9 0 5 21 42 48 83 26 40 54 86 62 103 15 31 92 151
110 172 5 7 10 17 10 23 0 5 4 10 9 10 5 0 11 8 14 17 6 18 37 74 47 83 8 7
130 200 130 205 0 2 18 30 40 61 22 32 40 63 40 71 0 7 4 13 8 13 4 0 26 30
47 66 22 36 52 84 67 107 15 23 35 57 45 74 9 18 20 33 25 33 4 0 8 5 8 11 0
6 11 25 25 43 14 18 25 36 25 39 0 3 14 26 30 50 16 25 30 49 30 54 0 5 9 15
20 23 11 8 20 18 20 22 0 7 90 151 109 174 4 5 14 21 21 35 7 13 37 61 67 106
29 45 53 87 53 92 0 6 4 11 8 11 5 0 15 12 23 28 8 15 17 32 22 37 22 29 56
85 51 85 -3 0 1 6 8 14 7 8 31 44 53 81 22 37 48 76 58 86 9 11 17 22 17 25 0
3 20 37 45 75 25 38 45 72 45 74 0 8 84 130 95 137 5 4 7 8 3 8 -4 0 15 36 42
80 28 44 50 84 50 89 0 5 4 11 8 13 5 2 44 60 88 130 43 71 96 154 117 185 20
32 40 66 43 75 4 10 10 18 15 18 5 0 9 7 9 15 0 8 3 15 8 15 4 0 13 13 20 29
7 16 22 39 32 51 11 13 20 29 20 37 0 7 5 13 10 13 6 0 10 5 10 11 0 6 6 16
13 24 6 7 26 36 42 64 17 28 65 105 108 171 42 66 77 122 77 124 0 2 34 54 75
116 41 62 75 116 75 120 0 4 9 15 20 25 11 10 20 21 20 26 0 7 253 411 287
459 10 13 21 31 26 40 4 8 17 31 30 50 82 131 108 171 160 251 31 49 57 93 57
98 0 5 4 11 8 13 13 4 102 160 102 176 0 22 -27 74 -56 107 -14 17 -33 42 -42
58 -9 15 -20 27 -24 27 -4 0 -8 7 -8 15 0 8 -4 15 -8 15 -4 0 -15 12 -24 28
-9 15 -25 36 -35 47 -10 11 -27 33 -37 50 -21 33 -32 47 -58 76 -10 10 -18 24
-18 29 0 6 -4 10 -8 10 -4 0 -16 15 -27 33 -10 17 -29 43 -42 57 -13 14 -23
31 -23 38 0 7 -4 10 -10 7 -5 -3 -10 -1 -10 5 0 7 -24 43 -52 81 -29 37 -75
99 -103 136 -27 37 -53 70 -57 71 -5 2 -8 8 -8 13 0 5 -7 17 -14 26 -49 60
-156 205 -156 213 0 4 -4 10 -8 12 -4 2 -41 48 -82 103 -176 239 -203 275
-227 300 -7 8 -13 18 -13 23 0 6 -12 23 -27 40 -16 17 -46 56 -68 87 -22 31
-50 69 -62 83 -13 15 -23 33 -23 40 0 7 -4 10 -10 7 -5 -3 -10 -1 -10 5 0 12
-60 93 -73 98 -4 2 -7 8 -7 13 0 6 -24 40 -52 77 -29 37 -64 83 -77 102 -13
19 -30 42 -37 50 -32 36 -144 192 -144 201 0 5 -4 9 -9 9 -5 0 -20 17 -32 38
-13 20 -26 39 -29 42 -4 3 -55 70 -114 150 -58 80 -112 152 -119 160 -6 8 -20
27 -29 41 -9 14 -23 32 -30 40 -8 8 -25 30 -38 49 -13 19 -27 37 -30 40 -3 3
-16 22 -30 42 -14 21 -28 38 -32 38 -5 0 -8 5 -8 10 0 6 -5 16 -11 23 -5 7
-42 55 -80 107 -39 52 -76 102 -82 110 -7 8 -23 31 -37 50 -13 19 -29 40 -35
46 -5 6 -17 22 -25 34 -8 12 -20 28 -25 34 -6 6 -25 31 -42 56 -17 25 -40 56
-52 69 -12 13 -21 27 -21 31 0 3 -8 15 -17 26 -28 31 -143 184 -143 190 0 3
-6 12 -12 19 -30 33 -137 177 -181 243 -16 23 -33 42 -38 42 -5 0 -9 4 -9 10
0 5 -6 18 -14 27 -8 10 -36 47 -63 83 -26 36 -52 68 -58 72 -5 4 -7 8 -3 8 7
0 -18 33 -50 66 -7 8 -10 14 -5 14 4 0 3 4 -2 8 -6 4 -21 21 -33 37 -12 17
-29 39 -37 50 -9 11 -36 47 -60 80 -24 33 -48 65 -52 70 -5 6 -39 53 -78 105
-38 52 -72 97 -75 100 -3 3 -16 21 -30 40 -13 19 -28 40 -32 45 -5 6 -32 42
-60 80 -28 39 -56 73 -62 77 -6 4 -7 8 -3 8 4 0 -1 10 -12 22 -12 12 -33 40
-48 62 -15 23 -30 43 -33 46 -20 20 -70 91 -70 99 0 6 -4 11 -8 11 -5 0 -26
25 -48 57 -21 31 -43 61 -49 67 -6 6 -26 33 -45 60 -18 27 -40 57 -49 66 -9
10 -32 41 -51 68 -19 28 -49 59 -66 68 -30 16 -34 16 -66 1 -24 -11 -47 -37
-73 -79 -21 -35 -43 -66 -49 -70 -6 -4 -7 -8 -3 -8 7 0 1 -9 -29 -43 -6 -7
-11 -16 -11 -20 -1 -7 -48 -82 -140 -223 -18 -28 -33 -56 -33 -63 0 -6 -4 -11
-10 -11 -5 0 -10 -5 -10 -10 0 -6 -5 -16 -11 -23 -17 -20 -99 -148 -99 -156 0
-4 -9 -17 -20 -29 -12 -12 -18 -22 -14 -22 4 0 -1 -10 -12 -22 -11 -13 -28
-39 -39 -58 -10 -19 -23 -39 -27 -45 -24 -29 -68 -102 -68 -112 0 -7 -4 -13
-10 -13 -5 0 -10 -7 -10 -15 0 -8 -3 -15 -8 -15 -4 0 -13 -13 -20 -30 l-13
-29 -25 24 c-13 13 -24 27 -24 30 0 8 -123 169 -132 173 -5 2 -8 8 -8 14 0 5
-6 15 -12 22 -7 7 -22 25 -33 41 -11 15 -27 36 -37 46 -9 9 -14 20 -11 23 3 3
-2 8 -11 12 -9 3 -16 10 -16 15 0 10 -121 172 -132 177 -5 2 -8 8 -8 13 0 5
-8 18 -17 30 -10 11 -28 33 -40 47 -13 15 -23 31 -23 35 0 5 -6 14 -12 21 -13
13 -22 24 -105 136 -26 36 -51 67 -55 68 -5 2 -8 8 -8 14 0 6 -12 25 -27 43
-16 17 -35 42 -43 55 -8 13 -23 31 -32 41 -9 10 -22 28 -29 41 -6 13 -18 30
-26 38 -19 21 -43 53 -73 96 -64 94 -116 126 -165 103z m91 -286 c17 -24 34
-39 38 -35 4 4 6 2 4 -5 -3 -11 118 -185 134 -191 4 -2 8 -10 8 -17 0 -7 4
-15 8 -17 4 -1 23 -24 42 -50 18 -27 37 -48 42 -48 4 0 8 -5 8 -10 0 -6 61
-93 136 -193 74 -100 143 -192 152 -205 16 -22 38 -51 60 -77 5 -6 13 -17 18
-26 5 -9 21 -32 36 -50 50 -64 98 -129 98 -134 0 -3 7 -13 15 -22 21 -27 98
-128 115 -153 8 -12 22 -30 30 -40 8 -10 23 -29 32 -42 9 -13 66 -89 125 -170
60 -80 118 -158 129 -173 10 -15 37 -50 59 -80 22 -29 47 -63 55 -75 8 -12 20
-28 25 -34 31 -35 185 -247 185 -255 0 -5 4 -11 9 -13 5 -1 46 -52 90 -113 44
-60 88 -119 97 -130 9 -11 27 -37 41 -57 14 -21 30 -38 34 -38 5 0 9 -5 9 -11
0 -9 26 -47 67 -99 7 -8 67 -89 135 -180 67 -91 126 -166 130 -168 4 -2 8 -8
8 -13 0 -6 25 -41 55 -79 30 -38 55 -73 55 -79 0 -5 3 -11 8 -13 4 -1 59 -73
122 -158 63 -85 117 -157 121 -160 3 -3 21 -27 39 -55 19 -27 39 -55 45 -61 5
-6 42 -55 80 -108 39 -54 82 -112 97 -129 15 -18 28 -36 28 -41 0 -5 6 -14 13
-20 7 -6 45 -54 83 -106 38 -52 74 -102 81 -110 7 -8 33 -44 60 -80 26 -36 51
-69 56 -75 4 -5 39 -53 77 -105 38 -52 73 -99 77 -105 5 -5 42 -55 83 -110 40
-55 77 -101 82 -103 4 -2 8 -8 8 -12 0 -7 91 -132 211 -290 11 -14 37 -50 59
-80 22 -30 43 -60 48 -66 5 -6 27 -35 48 -65 22 -30 44 -61 51 -69 61 -76 123
-162 123 -169 0 -5 3 -11 8 -13 4 -1 17 -16 30 -32 l22 -28 -22 -32 c-12 -17
-26 -33 -30 -34 -5 -2 -6 -7 -3 -12 3 -4 -2 -13 -10 -20 -8 -7 -15 -16 -15
-21 0 -5 -16 -32 -35 -59 -19 -27 -35 -52 -35 -54 0 -3 -27 -45 -60 -95 -33
-50 -60 -95 -60 -100 0 -5 -3 -11 -7 -13 -5 -1 -26 -32 -47 -68 -22 -36 -69
-111 -105 -167 -85 -131 -144 -227 -145 -233 0 -5 -10 -19 -33 -45 -7 -7 -13
-18 -13 -23 0 -17 -33 -39 -37 -25 -4 10 -22 35 -71 98 -9 12 -173 233 -282
380 -44 61 -90 121 -101 135 -11 14 -28 37 -37 53 -9 15 -20 27 -24 27 -4 0
-8 7 -8 15 0 8 -4 15 -9 15 -5 0 -20 17 -32 38 -13 20 -26 39 -29 42 -3 3 -27
34 -53 70 -27 36 -54 73 -62 82 -7 9 -22 29 -32 45 -9 15 -20 30 -23 33 -12
10 -100 130 -100 136 0 3 -6 11 -12 18 -14 14 -42 50 -83 106 -14 19 -32 44
-41 55 -16 20 -61 81 -248 335 -59 80 -115 154 -124 165 -8 11 -25 33 -36 50
-43 61 -141 190 -148 193 -5 2 -8 10 -8 18 0 8 -3 14 -7 14 -5 0 -19 17 -33
38 -14 20 -30 43 -37 50 -7 7 -20 26 -30 42 -9 17 -21 30 -25 30 -4 0 -8 6 -8
13 0 7 -8 20 -17 29 -10 8 -34 38 -53 66 -19 28 -38 51 -42 52 -5 0 -8 6 -8
14 0 8 -3 16 -8 18 -4 2 -32 37 -62 78 -30 41 -57 77 -60 80 -4 3 -39 51 -80
108 -41 56 -78 102 -82 102 -4 0 -8 5 -8 10 0 11 -140 203 -152 208 -5 2 -8
10 -8 18 0 8 -4 14 -10 14 -5 0 -10 7 -10 15 0 8 -4 15 -8 15 -5 0 -26 24 -46
54 -21 30 -45 64 -54 75 -43 50 -52 61 -52 65 0 3 -158 219 -210 286 -11 14
-83 111 -160 215 -77 105 -147 198 -155 208 -8 9 -15 19 -15 22 0 3 -8 14 -17
26 -70 84 -102 101 -146 78 -29 -16 -30 -18 -144 -199 -53 -85 -101 -156 -105
-158 -4 -2 -8 -8 -8 -13 0 -11 -91 -153 -102 -157 -4 -2 -6 -7 -3 -12 2 -4 -4
-18 -15 -30 -11 -13 -20 -27 -20 -31 0 -4 -6 -14 -13 -21 -6 -7 -30 -42 -51
-78 -22 -36 -57 -92 -79 -125 -22 -33 -51 -80 -65 -105 -14 -25 -28 -47 -31
-50 -3 -3 -42 -61 -85 -130 -84 -133 -100 -187 -70 -226 8 -11 27 -37 44 -59
16 -22 33 -45 37 -50 5 -6 28 -37 52 -70 25 -33 48 -61 53 -63 4 -2 8 -8 8
-13 0 -5 24 -40 53 -78 28 -37 59 -78 67 -91 8 -12 22 -30 30 -40 8 -10 23
-29 32 -42 74 -101 99 -135 107 -144 5 -7 34 -45 63 -85 29 -41 56 -76 59 -79
3 -3 30 -39 59 -80 30 -41 60 -82 67 -90 8 -8 32 -40 53 -70 22 -30 43 -59 47
-65 5 -5 20 -26 33 -45 14 -19 30 -42 37 -50 7 -8 109 -145 227 -305 118 -159
222 -297 230 -306 9 -9 16 -18 16 -21 0 -4 57 -83 128 -176 70 -93 135 -180
144 -193 9 -13 41 -56 70 -95 29 -40 60 -82 68 -94 8 -12 22 -30 30 -40 8 -10
83 -109 165 -221 83 -111 156 -208 163 -215 6 -7 12 -15 12 -18 0 -3 7 -14 15
-23 8 -10 63 -83 122 -163 59 -80 111 -146 115 -148 4 -2 8 -8 8 -12 0 -7 101
-148 147 -205 5 -5 65 -86 133 -178 326 -441 381 -514 399 -536 22 -28 30 -12
-98 -213 -47 -73 -99 -155 -117 -183 -17 -27 -56 -88 -86 -135 -30 -47 -63
-101 -74 -120 -10 -19 -21 -37 -24 -40 -3 -3 -30 -43 -60 -90 -29 -47 -57 -88
-63 -91 -5 -3 -8 -10 -6 -14 2 -8 -17 -39 -39 -61 -7 -8 -11 -14 -7 -14 4 0
-1 -7 -9 -16 -9 -8 -16 -21 -16 -28 0 -8 -7 -19 -15 -26 -12 -10 -16 -9 -22 6
-4 11 -15 25 -25 32 -10 7 -18 20 -18 28 0 8 -4 14 -10 14 -5 0 -16 12 -24 28
-8 15 -26 41 -40 57 -14 17 -30 35 -36 42 -5 7 -10 16 -10 22 0 5 -3 11 -7 13
-9 4 -103 126 -103 133 0 5 -10 19 -36 48 -6 7 -38 51 -72 97 -34 47 -67 92
-75 100 -7 8 -44 58 -82 110 -39 52 -73 100 -78 105 -4 6 -33 44 -63 85 -31
41 -66 89 -79 105 -13 17 -24 33 -24 38 0 4 -11 18 -23 31 -13 13 -68 85 -123
160 -144 196 -383 518 -400 539 -8 9 -15 20 -15 23 0 2 -5 10 -10 17 -23 27
-46 56 -60 77 -8 12 -22 30 -30 40 -8 10 -80 107 -160 215 -80 108 -203 274
-274 368 -70 95 -146 198 -168 230 -23 31 -45 57 -49 57 -5 0 -9 7 -9 15 0 8
-4 15 -10 15 -5 0 -10 4 -10 10 0 5 -7 18 -15 27 -8 10 -103 137 -211 283
-174 235 -278 374 -301 405 -5 6 -33 44 -63 85 -30 41 -60 82 -67 90 -26 34
-199 267 -221 299 -13 18 -30 40 -38 48 -8 8 -14 18 -14 23 0 12 -60 44 -80
43 -44 -3 -64 -27 -225 -284 -94 -149 -176 -277 -182 -284 -7 -8 -13 -18 -13
-24 0 -6 -4 -11 -10 -11 -5 0 -9 -3 -8 -7 2 -8 -21 -47 -91 -153 -20 -30 -40
-62 -46 -72 -5 -10 -41 -66 -78 -125 -38 -60 -74 -117 -80 -128 -7 -11 -14
-22 -17 -25 -3 -3 -25 -37 -49 -77 -54 -91 -52 -120 13 -203 25 -32 46 -63 46
-68 0 -6 4 -12 9 -14 5 -1 52 -61 104 -133 53 -71 100 -134 104 -140 5 -5 19
-26 33 -45 13 -19 27 -37 30 -40 3 -3 29 -38 58 -78 29 -40 59 -80 67 -90 32
-39 205 -274 205 -278 0 -3 6 -11 13 -18 6 -7 20 -24 30 -37 38 -53 219 -295
235 -316 9 -12 24 -32 32 -44 8 -12 23 -31 33 -41 9 -10 17 -20 17 -23 0 -8
204 -279 213 -283 4 -2 7 -10 7 -18 0 -8 3 -14 8 -14 4 0 22 -23 41 -50 19
-28 38 -50 43 -50 5 0 6 -5 3 -10 -3 -6 1 -13 9 -16 9 -3 16 -11 16 -18 0 -6
12 -24 26 -41 25 -29 233 -310 264 -355 8 -12 20 -28 25 -34 6 -6 28 -36 50
-66 22 -30 45 -61 52 -68 7 -8 34 -44 60 -80 26 -37 50 -69 53 -72 3 -3 17
-21 30 -40 13 -19 27 -37 30 -40 3 -3 16 -22 30 -42 14 -21 28 -38 33 -38 4 0
7 -6 7 -14 0 -8 3 -16 8 -18 4 -1 27 -30 51 -63 25 -33 48 -61 53 -63 4 -2 8
-8 8 -13 0 -6 25 -41 55 -79 30 -38 55 -72 55 -75 0 -4 6 -12 13 -20 6 -7 21
-25 32 -40 11 -15 107 -144 213 -286 105 -143 192 -263 192 -269 0 -5 4 -10 8
-10 4 0 32 -34 62 -77 30 -42 60 -81 65 -87 6 -6 42 -54 80 -106 39 -52 73
-96 77 -98 5 -2 8 -10 8 -17 0 -7 3 -15 8 -17 4 -1 21 -22 39 -46 l31 -43 -39
-59 c-21 -33 -39 -64 -39 -70 0 -5 -4 -10 -9 -10 -5 0 -14 -13 -21 -30 -7 -16
-15 -30 -19 -30 -3 0 -12 -14 -19 -30 -8 -17 -19 -36 -26 -43 -7 -6 -25 -34
-41 -62 -36 -61 -90 -146 -104 -161 -5 -7 -8 -14 -5 -16 2 -3 -5 -13 -16 -23
-11 -10 -20 -24 -20 -31 0 -7 -6 -19 -13 -26 -7 -7 -31 -42 -52 -78 -22 -36
-43 -67 -47 -68 -5 -2 -8 -8 -8 -14 0 -6 -10 -25 -23 -42 -13 -17 -34 -50 -47
-73 -13 -24 -27 -43 -32 -43 -4 0 -8 -7 -8 -16 0 -8 -12 -30 -27 -49 -27 -33
-28 -34 -45 -15 -10 11 -18 22 -18 25 0 3 -9 16 -21 28 -12 12 -28 33 -37 47
-9 14 -52 71 -94 128 -43 57 -78 107 -78 112 0 4 -7 10 -15 14 -8 3 -15 12
-15 20 0 8 -4 16 -8 18 -5 1 -32 35 -60 73 -29 39 -61 81 -71 95 -10 14 -44
59 -74 100 -31 41 -61 81 -67 87 -6 7 -9 13 -6 13 3 0 -5 11 -18 25 -13 14
-36 44 -52 67 -16 24 -31 45 -35 48 -3 3 -18 23 -34 45 -17 22 -34 43 -40 47
-5 4 -6 8 -2 8 5 0 2 6 -5 13 -7 8 -22 26 -33 42 -11 15 -28 36 -38 47 -9 10
-17 20 -17 23 0 10 -74 105 -82 105 -4 0 -8 5 -8 10 0 6 -26 45 -58 88 -32 42
-105 140 -162 217 -56 77 -109 145 -116 151 -8 6 -14 14 -14 18 0 9 -143 200
-152 204 -5 2 -8 9 -8 15 0 7 -14 26 -30 44 -17 18 -30 37 -30 42 0 6 -4 11
-10 11 -5 0 -10 5 -10 11 0 5 -13 24 -30 42 -16 18 -30 36 -30 41 0 5 -7 16
-16 25 -8 9 -33 41 -55 71 -65 89 -83 112 -96 126 -7 7 -13 17 -13 23 0 6 -4
11 -8 11 -4 0 -16 15 -27 32 -10 18 -29 44 -42 58 -13 14 -23 28 -23 33 0 4
-5 5 -12 1 -7 -4 -8 -3 -4 4 4 6 -2 20 -14 32 -11 11 -17 20 -14 20 3 0 -1 6
-8 14 -24 25 -48 56 -48 62 0 3 -19 29 -42 59 -24 29 -70 89 -102 134 -32 45
-63 81 -69 81 -6 0 -8 3 -4 6 3 3 1 11 -4 18 -5 6 -71 94 -147 196 -75 102
-140 187 -144 188 -5 2 -8 9 -8 17 0 7 -7 19 -16 26 -9 8 -27 30 -40 49 -13
19 -38 53 -54 75 -17 22 -38 50 -47 63 -9 13 -27 35 -40 50 -13 15 -23 30 -23
34 0 4 -11 20 -25 35 -26 30 -34 40 -50 65 -5 8 -25 35 -43 59 -18 24 -41 55
-50 68 -9 13 -24 32 -32 41 -8 9 -19 24 -25 32 -49 75 -64 95 -79 107 -9 7
-16 19 -16 26 0 8 -4 15 -8 17 -5 2 -35 39 -68 83 -32 44 -62 84 -67 90 -4 5
-84 114 -178 240 -93 127 -175 237 -182 245 -7 8 -23 31 -37 50 -14 19 -30 42
-37 50 -6 8 -33 44 -60 80 -26 36 -50 67 -53 70 -3 3 -21 28 -40 55 -19 28
-40 57 -47 65 -23 29 -253 340 -264 358 -9 14 -1 33 43 102 29 47 56 87 61 88
4 2 7 9 7 16 0 6 7 21 15 31 25 32 95 144 95 151 0 4 7 12 14 18 8 6 16 18 18
26 3 14 12 29 34 53 6 7 15 23 18 35 4 12 12 22 17 22 5 0 9 7 9 15 0 8 5 15
10 15 6 0 10 6 10 13 0 7 7 22 15 32 27 36 65 96 65 104 0 4 8 16 18 27 11 11
25 32 33 47 21 40 199 319 213 332 6 6 20 29 31 50 11 21 28 47 38 57 9 10 17
22 17 26 0 5 9 19 20 32 11 12 17 26 15 30 -3 5 -1 10 3 12 11 4 102 146 102
158 0 5 8 14 17 19 10 6 15 11 11 11 -4 0 20 40 52 90 33 49 60 94 60 99 0 6
8 15 18 20 9 6 13 11 9 11 -5 0 6 21 24 48 62 90 69 101 69 107 0 3 5 11 10
18 15 18 110 167 110 172 0 3 16 28 35 55 19 27 35 52 35 54 0 3 18 32 40 65
22 33 40 62 40 65 0 8 103 170 113 177 5 3 9 10 9 15 1 9 12 27 83 138 19 29
31 57 27 61 -4 5 -2 5 4 2 7 -4 19 7 29 26 24 47 49 91 55 97 3 3 17 23 31 45
14 22 47 73 72 112 26 40 47 77 47 83 0 5 5 10 10 10 6 0 10 4 10 10 0 5 18
36 40 67 22 32 40 63 40 70 0 6 3 13 8 15 4 2 23 28 42 58 69 112 165 255 172
258 5 2 8 8 8 14 0 9 88 150 110 175 5 7 15 24 22 38 6 14 16 25 21 25 6 0 7
3 4 7 -4 3 4 21 18 39 14 18 25 37 25 43 0 6 3 11 8 11 4 0 18 20 31 45 13 25
28 45 32 45 5 0 9 7 9 15 0 9 9 25 20 37 11 12 20 28 20 35 0 7 5 13 10 13 6
0 10 5 10 11 0 6 11 25 25 43 14 18 25 36 25 39 0 3 14 26 30 50 17 25 30 49
30 54 0 4 11 20 25 35 14 15 30 38 35 50 6 13 18 35 28 49 60 91 72 110 72
119 0 5 4 10 10 10 5 0 12 11 16 25 3 14 9 25 13 25 7 0 60 91 63 107 1 5 7
14 14 20 7 7 27 37 44 65 17 29 49 80 70 113 22 33 44 69 49 80 5 12 16 27 25
34 9 7 16 19 16 26 0 6 9 22 20 35 10 12 25 35 32 51 7 16 16 29 19 29 4 0 12
14 19 30 7 17 17 30 22 30 5 0 6 5 3 10 -3 6 -2 10 3 10 5 0 19 20 32 45 12
24 31 53 41 64 11 11 19 23 19 26 0 6 52 91 91 147 11 15 19 32 19 38 0 5 4
10 9 10 5 0 11 8 15 18 6 19 25 50 43 69 6 7 15 22 18 33 3 11 10 20 15 20 4
0 11 11 14 25 8 30 12 26 62 -42z"/>
</g>
</svg>
