<?xml version="1.0" encoding="utf-8"?>
<!-- Generator: Adobe Illustrator 21.0.2, SVG Export Plug-In . SVG Version: 6.00 Build 0)  -->
<svg version="1.1" id="Layer_1" xmlns="http://www.w3.org/2000/svg" xmlns:xlink="http://www.w3.org/1999/xlink" x="0px" y="0px"
	 viewBox="0 0 800 400" style="enable-background:new 0 0 800 400;" xml:space="preserve">
<style type="text/css">
	.st0{fill:#FF6C9D;}
	.st1{fill:none;}
	.st2{fill:#8FEFFF;}
	.st3{fill:#E0FF00;}
	.st4{fill:#37C3FF;}
	.st5{fill:none;stroke:#37C3FF;stroke-width:3;stroke-linecap:round;stroke-miterlimit:10;}
	.st6{fill:#D8E000;}
	.st7{fill:#B59AFF;}
	.st8{fill:#FFBD26;}
	.st9{fill:none;stroke:#FFBD26;stroke-width:3;stroke-linecap:round;stroke-miterlimit:10;}
	.st10{fill:none;stroke:#B1008A;stroke-width:2;stroke-linecap:round;stroke-miterlimit:10;}
	.st11{fill:none;stroke:#FF8BF5;stroke-width:2;stroke-linecap:round;stroke-miterlimit:10;}
	.st12{fill:none;stroke:#4C0092;stroke-width:2;stroke-linecap:round;stroke-miterlimit:10;}
	.st13{fill:none;stroke:#FF3D79;stroke-width:2;stroke-linecap:round;stroke-miterlimit:10;}
	.st14{fill:none;stroke:#E000D4;stroke-width:2;stroke-linecap:round;stroke-miterlimit:10;}
	.st15{fill:none;stroke:#FF839B;stroke-width:2;stroke-linecap:round;stroke-miterlimit:10;}
	.st16{fill:#00D8A2;}
	.st17{fill:#92FFB6;}
	.st18{fill:#FFB1EB;}
</style>
<g id="bg">
	<rect class="st0" width="800" height="400"/>
</g>
<g id="paths">
	<path id="rightpath" class="st1" d="M849,229.3c0,0-289.6,26.1-459.3-69.4C173,38,157.2-88,157.2-88"/>
	<path id="leftpath" class="st1" d="M-7.1,233.8c0,0,233.4,44.8,403.1-50.7C612.7,61.1,684.7-83.5,684.7-83.5"/>
</g>
<g id="bird1">
	<g>
		<g>
			<path class="st2" d="M818.7,221.2L818.7,221.2c-3.4-8.5-13-13-21.6-10c-7.3,2.6-11.7,9.4-11.4,16.6l-7.8,9.6l11.7,2.1
				c4.7,8.2,20.8,31.9,45.5,22c42-17,29.2-44.6,29.2-44.6l-41.6,6C821,223.4,819.3,222.7,818.7,221.2z"/>
		</g>
		<g>
			<path class="st3" d="M799.6,210.8c0,0-3.5-5.4-2.1-9.2s6.7-6.1,8.1-2.9c1.6,3.6-3.7,3.8-4.6,6.2
				C800.1,207.4,799.6,210.8,799.6,210.8z"/>
		</g>
		<g id="wing_2_">
			<path class="st4" d="M823.1,232.4c0,0-5.9-27.9-2.8-35.6c4.7-11.6,22.3-21.1,27.1-17s1.4,8.5,1.4,8.5s3.4-1.9,7.1,2.3
				c3.7,4.2-1,9.3-1,9.3s5.4,2,5,6.7c-0.2,2.2-4.6,7.3-16.1,12.3c-8.4,3.6-13.6,16.7-17.1,16.9C823.1,236.1,823.1,232.4,823.1,232.4
				z"/>
		</g>
		<g>
			<g>
				<path class="st5" d="M801.1,226.3c0.8,2,0.2,4.1-1.9,5.1"/>
				<path class="st5" d="M798.9,231.6c-1.8,0.7-3.9-0.1-4.8-2.4"/>
			</g>
		</g>
	</g>
</g>
<g id="bird2">
	<g>
		<g>
			<path class="st6" d="M-11,207L-11,207c1.7-9,10.1-15.4,19.2-14.1c7.6,1.1,13.3,6.9,14.5,14l9.5,7.8l-11,4.3
				c-3,9-14,35.4-40.2,30.6c-44.6-8.3-37.5-37.9-37.5-37.9l42-2.4C-12.9,209.7-11.3,208.6-11,207z"/>
		</g>
		<path class="st7" d="M5.6,193.1c0,0,2.3-6,0.3-9.4c-2.1-3.4-7.8-4.6-8.5-1.3c-0.8,3.9,4.4,3,5.7,5.2S5.6,193.1,5.6,193.1z"/>
		<g id="wing_3_">
			<path class="st8" d="M-13.2,218.9c0,0,0.2-28.5-4.4-35.4c-6.9-10.5-26.1-16.2-29.9-11.3c-3.9,5,0.3,8.7,0.3,8.7s-3.7-1.2-6.5,3.7
				s2.8,8.9,2.8,8.9s-4.8,3-3.5,7.5c0.6,2.1,6,6.2,18.2,8.8c8.9,1.9,16.7,13.7,20.2,13.2C-12.4,222.5-13.2,218.9-13.2,218.9z"/>
		</g>
		<path class="st9" d="M7.2,208.5c-0.4,2.3,0.8,4.2,3.2,4.7c1.9,0.4,3.8-0.9,4.3-3.3"/>
	</g>
</g>
<g id="strings1">
	<g>
		<path class="st10" d="M1472.1,525.7c0,0-218.4,40.9-434.6-42.1C801.2,393,780.4,235.9,780.4,235.9"/>
		<path class="st11" d="M779.8,236.1c-0.6,19.3,36,168.5,257.9,255.3c246.6,96.5,463.2,56.8,463.2,56.8"/>
		<path class="st12" d="M779.8,236.1c0,0,22.4,174.5,267.2,265.4c248.3,92.1,477.4,84.4,477.4,84.4"/>
	</g>
</g>
<g id="strings2">
	<g>
		<path class="st13" d="M-744.7,492.4c0,0,279.3,65.5,493.2-23c234-96.8,278.7-254.5,278.7-254.5"/>
		<path class="st14" d="M30,213.3c-4.2,11.4-54.6,159.1-254.6,251.1c-240.6,110.7-520,61-520,61"/>
		<path class="st15" d="M28.5,210.7c0,0-50.2,167.5-254.4,267.3c-201.8,98.6-518.8,74.4-518.8,74.4"/>
	</g>
</g>
<g id="bird3">
	<g id="wing">
		<path class="st16" d="M395.2,221.9c0,0-12.3-25.8-19.4-30c-10.8-6.4-30.5-3.3-31.9,2.9s4.1,7.6,4.1,7.6s-3.8,0.6-4.3,6.2
			c-0.4,5.6,6.4,6.8,6.4,6.8s-3,4.8,0.1,8.3c1.5,1.6,8.1,3,20.3,0c8.8-2.2,21,5.1,23.9,3.1C397.4,224.8,395.2,221.9,395.2,221.9z"/>
	</g>
	<path class="st17" d="M403.8,207.7c0,10.4-8.4,18.8-18.8,18.8c-4.5,0-8.6-1.6-11.9-4.2c-4.2-3.4-6.9-8.7-6.9-14.6
		c0-10.4,8.4-18.8,18.8-18.8S403.8,197.3,403.8,207.7z"/>
	<path class="st17" d="M372.6,219c0,0-0.6-1.7,0.5,2.2c0.5,1.6,1.3,4.3,2.5,8.4c4.3,14.1,9.9,19.4,21.4,20.1
		c11.6,0.7,19.3-5.9,24.4-15.6c5.1-9.7,4.7-26.5,4.7-26.5s-12.4,3.5-17.8,4.2s-13.7-4.2-13.7-4.2h-18L372.6,219z"/>
	<polygon class="st17" points="368.4,207.7 360.4,221.9 376.4,221.9 	"/>
	<g id="wing_1_">
		<path class="st16" d="M399.4,217.5c0,0,15.8-23.8,23.5-26.9c11.6-4.8,30.7,1.1,31.1,7.4c0.4,6.3-5.1,7-5.1,7s3.7,1.1,3.3,6.7
			c-0.4,5.6-7.3,5.8-7.3,5.8s2.3,5.2-1.3,8.2c-1.7,1.4-8.4,1.8-20.1-2.9c-8.4-3.4-21.5,2-24.1-0.3
			C396.8,220.1,399.4,217.5,399.4,217.5z"/>
	</g>
	<ellipse class="st16" cx="382" cy="211.4" rx="2.8" ry="4.2"/>
	<path class="st18" d="M377.2,193.8c0,0-4-5-3.1-8.9s6.1-6.7,7.7-3.8c1.9,3.5-3.3,4.1-3.9,6.7C377.3,190.3,377.2,193.8,377.2,193.8z
		"/>
</g>
</svg>
