<?xml version="1.0" encoding="utf-8"?>
<!-- Generator: Adobe Illustrator 21.0.2, SVG Export Plug-In . SVG Version: 6.00 Build 0)  -->
<svg version="1.1" id="bird1" xmlns="http://www.w3.org/2000/svg" xmlns:xlink="http://www.w3.org/1999/xlink" x="0px" y="0px"
	 viewBox="0 0 250.4 205.3" style="enable-background:new 0 0 250.4 205.3;" xml:space="preserve">
<style type="text/css">
	.st0{fill:#8FEFFF;}
	.st1{fill:#E0FF00;}
	.st2{fill:#37C3FF;}
	.st3{fill:none;stroke:#37C3FF;stroke-width:3;stroke-linecap:round;stroke-miterlimit:10;}
</style>
<path class="st0" d="M121.8,85L121.8,85c0-25.5-19.8-47-45.2-48.1c-21.3-1-39.8,12.2-46.7,30.9L0,84.2l27.8,17.4
	c3.6,26.1,20.4,103.7,94,103.7c125.6,0,121.3-84.3,121.3-84.3L130,93.2C125.5,93.2,121.8,89.5,121.8,85z"/>
<path class="st1" d="M83.6,38.6c0,0-3.3-17.5,4.1-25.8c7.3-8.3,23.6-8.7,23.8,0.8c0.3,11-13.4,5.9-18.2,11.2
	C88.4,30.2,83.6,38.6,83.6,38.6z"/>
<path class="st2" d="M121.6,118.4c0,0,14-77.9,29.9-94.4C175.7-1,230.8-7,238.8,8.5c8.1,15.5-5.3,23.4-5.3,23.4s10.7-1.3,15.9,13.3
	s-12.3,22.9-12.3,22.9s11.7,10.7,5.8,22.3c-2.7,5.4-19.4,14-54.2,14.8c-25.2,0.6-52.4,28.9-61.7,25.7
	C117.8,127.8,121.6,118.4,121.6,118.4z"/>
<path class="st3" d="M71.5,79.9c0,6.4-4.3,11.2-11.2,11.2c-5.5,0-10-4.4-10-11.2"/>
</svg>
