<svg xmlns="http://www.w3.org/2000/svg" xmlns:xlink="http://www.w3.org/1999/xlink" version="1.1" x="0px" y="0px" viewBox="0 0 800 800" xml:space="preserve" enable-background="new 0 0 800 800">
  <style type="text/css">
    
	.st0{display:none;}
	.st1{display:inline;}
	.st2{fill:#686868;}
	.st3{fill:none;stroke:#FFFFFF;stroke-miterlimit:10;}
	.st4{fill:none;stroke:#FFFFFF;stroke-linejoin:round;stroke-miterlimit:10;}

  </style>
  <g id="background" class="st0">
    <g class="st1">
      <rect x="20.4" y="19.4" class="st2" width="781.2" height="781.2"/>
    </g>
  </g>
  <g id="main">
    <path class="st3" d="M126.1 400.4l469.2-17.1 88.5 43 -25.1 274.5L551.4 761l-376.1-25.5L126.1 400.4l18.2-0.7L189 736.4l-4.4-33.1 96.8 4.4 3.1 35.4 -8.2-94.1 -99.4-3.4 3.7 27.5 98.3 4.4 -5.3-57.4 -100.5-2.7 -3.5-26.4 23.3 0.5 0.7 6h66.9l-5.5-112.9c0 0-14.7-8.7-36.2-8.7 -25.9 0-36.4 16.6-36.4 16.6l10.8 101.4 -3.3-31.9 -24-0.3 -3.6-25.6 24.8 0.2 -3.1-29.5 -25.5 0.3 -3.1-26.5 41.9-0.2c0 0 10.3-4.6 21.6-4.6 15.9 0 25.7 3.9 25.7 3.9l17 0.1 12.4 141.5 -2.3-28.6 -11.2-0.2 -1.4-29.4 9.9 0 -2.4-27.1 -8.9 0 -1.4-29.1 7.7-0.2 -3.1-35.7c0 0 25.4-26.2 80.5-28.3 60.3-2.2 104.6 24.1 104.6 24.1l-5.6 98L431.9 753l95.4 6.4 4.9-41 -98.6-4.8 1.3-29.4 100.6 4.7 -3.2 29.4 10-90.8 -104.6-3.2 -1.3 30.3 102.6 3.7 6.7-61 -18.9-0.5 -0.5 5.3 -74.4-2.1 0-108.7c0 0 12-15.8 41.2-15.8 29.8 0 44.6 13.1 44.6 13.1l-11.4 113.4 3.3-35.2 19.4 0.2 -3.3 30.1 6.8-62.1 -19.5-0.3 2.8-28.6h19.9l-3.3 29.3 6.5-58.9 -50.1 0.3c0 0-4.6-1.3-15.9-1.3 -11.8 0-16.5 1.9-16.5 1.9l-31.1-0.1 -1.7 29 8.1 0.1v29.1h-9.8l-1.7 30.3 11.5-0.2V596l-12.8 0 12.8 0 0 4.3 74.4 2.1 0.5-5.3 18.9 0.5 16.6-150.3L403 450.1c0 0-28.8-7.4-61.7-7 -25.3 0.3-46 8.6-46 8.6H151.2l-2.8-24.7 417-9.9 -4.3 39.3 8-72.1 26.3-1L551.4 761l11.8-6.5 42.6-366 -3.7 33.3 80.3 21.2 -2.3 24.7 -81.3-18.5 -3.4 29.4 82.5 15.5 -2.2 22.6 -83.6-9.3 -3.6 30.9 85 2.5 -2.1 23.4 -86.1 2.6 -3.6 30.8 87.7-11.7 -2.1 23.3 -88.9 16.6 -3.5 30.2 90.6-25.4 -2.4 24.3 -91.6 30.1 -3.5 30.6 93.2-40.1"/>
  </g>
  <g id="roof">
    <path class="st4" d="M354.2 100.6c0 0-65.8 115.9-80.1 137.3 -14.3 21.4-74.3 85.7-88.1 98.7 -9.9 9.4-53.5 46.2-60.9 53.1 -2.9 2.7 21.7-18.9 21.7-18.9l97.3-4.1c0 0 0.9-27.4-4.6-37.7 -5.5-10.3-24-22.6-24-22.6l15-16.8c0 0 21 11.6 31.6 29.9 10.6 18.2 7.1 46.1 7.1 46.1l-25.1 1.1 246.8-10.8 -35.1 1.6c0 0 0-34.5 7.4-50 7.4-15.5 23.4-28.1 23.4-28.1l17 15.3c-3 3.1-14 16.5-18.5 25.3 -6.3 12.4-3.4 36.3-3.4 36.3l91.3-4.4 22.2 14.8 0.1 16.6 -469.2 16.9 -1-10.6c0 0 8.1-6.3-12.6 9.5s-52 36.1-52 36.1l-17.3 3.6 17.3-3.6 72.1 9.5 0.7 4.9 -90.1-10.7 -6.9-12.9c-1.7 0.5-9-4.5-9-4.5l43.1-29.1 8 2.8 -8-2.8 -3.9-2.2 39.9-28 13 2.2 -13-2.2 -4.4-1.9c0 0 14.8-10 25.8-17.4 3.9-2.6 12.9-10.6 15-12.7 0 0 11.7 2.2 12.5 1.5l-12.5-1.5 -2.4-1.9c0 0 13.2-8.4 21.2-15 5.3-4.4 17.8-18.2 17.8-18.2s10.2 1.6 10.9 0.9l-9-0.4 -7.7-1.9c0 0 13-8.1 20.2-15.4 6.3-6.4 20.8-22.1 20.8-22.1l7.6 5.2 -7.6-5.2 -4.3-3.2c0 0 9.2-7.8 21.5-22.1 5.8-6.8 15.4-17.3 15.4-17.3l8.4 2.9 -8.4-2.9 -4.8-1.9c0 0 4.8-3.6 16.5-17.4 6.8-8 16.4-22 16.4-22l6 0.6 -6-0.6 -4.9-0.7c0 0 6.9-6.6 18-24.2 5-7.9 14.5-25 14.5-25l7.1-1.8 -7.1 1.8 -4.2 0.6c0 0 6.9-8.5 19.5-32 7.9-14.8 28-52.1 28-52.1s-17.8 50.3-38.1 85.1c-18.9 32.3-47.2 94.2-89.2 141.2C178 311 139.1 349.5 113.8 369c-21.3 16.4-77.5 57.2-77.5 57.2l6.9 12.9c0 0 58.8-36.8 88.3-62.7S225 289 258.2 244.9s91-155.1 91-155.1 37.5 85.7 73.8 126.9 123.6 118.4 158.1 141.2c34.4 22.7 110.1 68.2 110.1 68.2l71.3 35.8 9.2-10.3h11.1l-113.8-73.7 4.9-2.6c0 0-5-2.5-12.1-6.3l-60.5-40 -47.3-34c0 0-29.5-22.2-40-37.5 -10.5-15.3-10.8-16.5-10.8-16.5l0 0c0 0-8.8-20.8-10.7-24.4l0 0 -4.8-16.1 -1.6-9.3 36.5-0.8L346.2 39l9.8 21.7c0 0 13.6 33.3 35.1 65.6s43.1 75.6 83 113.7 95 80.6 116.6 95.4 111 71.1 111 71.1l-12.6 18.3 12.6-18.3 70.1 45.1h11.1l-113.8-73.7 4.9-2.6 -12.1-6.3 -0.4-66.9 19 1.3 -0.1-5.8 -9.4-97.7 -14.5 57.9 -0.4 92.7 -6.7 1.2 -15.7-10.3 4.5-3 16.9 10.9L638 338.5l-0.4-48.5 4.9-0.2V328l9 8 1-62.8 -4.3 16.4 -15.3 0.5 0.6 51.3 -0.6-51.3 15.3-0.5 7.3-26.5 -27.2 1.2 8-26.4 -36.5 0.8 -9.8 27.3 -28 1.2 14.9-27.9 -43 1 -15.3 22.9 -15.2-22.2 4.9-0.1 13.9-24.8 37-0.8 -13 24.7 34.5-0.8 10.3-24.6 42.6-0.9 -7.3 24.4 35.5-0.8 6.1-24.3 -40.8 0.8 5-15.6 -21.2 0.6 -5.8 15.5 -35.6 0.7 8.4-16.1 -25.8 0.5 -7.4 16.2 -31.2 0.6 8.5-16.3 -34.2 0.6 -2.1-9.7 28.8-0.2L354.3 57l24.8 49.9L497 190.7l-11.3 0.1 2.1 9.7 2.3 7.8L411 157.5l-28.6-45.2 28.6 45.2 24.1 37 64.1 36.7 4.1 9.7 15.2 22.2 -16.2-9.8 -31.8-16.9 48 26.7 5.2 5.7 22.5 20 -30.9-12.1 30.9 12.1 55.1 40.1L553 307.2l48.3 21.7 60.5 40 12.1 6.3 -4.9 2.6 -79.7-43.4 79.7 43.4 4.9-2.6 -12.1-6.3L661.1 240l0.4 62 19 1.3 -0.2-3.6 7.4 1.1 -13.4-113.8 -188.1 4.1 1.6 9.3 183.7-3.4 -3.8 15.9 -175.2 3.6 10.7 24.4 158.5-3.7 -6.3 25.9 -131.7 5.7 22.5 20 101.9 0.8 4.3-16.4 1.7-5.9 20.1-80.3 -7.3 29.1 -14.5 57.1 -4.3 16.4 -23.5 0.1 -1.1 42.9 -0.9 10.5 1.2-24.8"/>
  </g>
  <g id="doors">
    <path class="st4" d="M421.3 482.6c0 0-33.2-15-68.8-15.3 -40.7-0.4-62.1 10.4-62.1 10.4l16.4 267.1 -6.5-0.5 -15-269.1c0 0 26.5-13.2 64-13.4 37.5-0.1 74 13.9 74 13.9l-12.9 275.8 21.5 1.4 14-285.9c0 0-41.8-24.7-99-24.2 -57.2 0.5-86.1 28.5-86.1 28.5l24 271.7 22 1.7 0-4.5 103.8 6.5 -15.4-1 0.8-56.3 12 0.2 0.9-23.4 -13.4-0.2 0.8-54.3H394l-0.2-3.5 0.2 3.5h10.6l0.7-22.2h-12.5l0.4 6.3c0 0-4.9 0.6-5.4 4.9 -0.5 4.6 0.6 7.7 8 7.5 4.2-0.1 6-3.7 6-6.5s-3-6.8-8.6-6l-0.4-6.3 4.1-0.1 1.2-59.7 16 0.3L415 509l-15.9 0.3 1.5-34.3c0 0-6.6-1.9-13.1-3.1 -6.5-1.2-7.9-1.4-7.9-1.4l0.2 39.1 35-0.6 -0.8 21.2 -35.9-0.4 -79.3 0.1 79.3-0.1 -2.4 136 20.7 0.3 -41.6-0.8 4.2-135.8 -25.1 0.3 0.5 135.6 61 0.8 -93.6-1.2 17 0.2 -2.3-135.4 -23 0.1 -0.1-2.3 8.4-0.6c0 0-1.1-2.8 1.6-4.8s18.5-1 18.5-1l-0.3-4.1c0 0-15.3 1.8-18.3-1.2 -3-3-1.8-3.7-1.8-3.7l-9.2-0.4 -0.1-2.7 23.3-0.2 -2.5-37.8 2.5 37.8 64.3 0.7 -0.2-39.1c0 0-5.2-1.2-11.8-2.1 -5.7-0.8-9.4-0.8-9.4-0.8l-0.1 41.9 -23.2-0.2 -0.9-41.3c0 0-11.9 0.8-23.6 3.4 -8.7 1.5-20.2 6.4-20.2 6.4l11.7 190.2 9.3-0.1c-1.6 4.3 0 5.2 0.9 5.9 1.2 0.9 2 1.2 6.3 1.3 2.7 0.1 9.4-0.2 10.9 0l0.2 3.8c0 0-16-1.5-17.1 0.1 -4.5 3.1-1.2 5.8-1.2 5.8l-8.3-0.2 0.2 2.5 92.8 2.4 -20.8-0.5 -0.8 55.5 -22.6-1.4 1.6-54.7 -19.6-0.2L334 742c0 0.1-14.4-0.9-14.4-0.9l-0.8-53.2 0.8 53.2 -12.8-0.8"/>
  </g>
  <g id="top_window">
    <path class="st4" d="M387.8 339.2c23-12.4 38.4-38.9 35.1-67 -4.3-36.5-36.6-62.7-72.1-58.5 -35.5 4.2-60.9 37.1-56.6 73.6 4.3 36.5 30.2 58.5 64.4 58.5C373 345.9 379.8 343 387.8 339.2l-8.5-14.5 0 0c-4.6 2.1-9.7 3.6-15 4.2 -10.1 1.2-23.1-2.5-31.7-6.8l-8.8 13.6 8.8-13.6c-13.2-8.1-23.4-22.6-25.4-39.5 -3.4-28.9 16.7-55 44.8-58.3 28.1-3.3 53.7 17.4 57.1 46.3 2.2 18.3-6 42.1-29.8 54.1"/>
    <path class="st4" d="M379.3 324.8c0 0-1.2 1.3-8.9 3.6 -7.7 2.3-13.6 0.7-13.6 0.7l-3.3-104 1.2 60.4 54.6-1 -102.4 0.1"/>
  </g>
  <g id="stovepipe">
    <path class="st4" d="M228.4 234.9L189.9 223l-0.9-55.3 5.8-1.6 0.7-3.6 -6.5 0 1.4-10.7 4.1-2.3 0.8-3.7c0 0-10.8 0.5-19.5 0.5 -8.7 0-18.8-0.2-18.8-0.2l1.8 3.8 3.7 2.2 27.9-0.3 -27.9 0.3 0.5 10.3 31.5 0 -38.5 0 2.3 3.7 5.4 1.8 25.3-0.2 -25.3 0.2 4.1 55.1 22.1 0 -22.3 9.3c0 0-1.8-1.9-1.8-5.3 0-3 2-3.9 2-3.9l22.1 0 -22.3 9.3c0 0-1.1 2.3 1.2 5.8 1.6 2.4 5 2.2 5 2.2l16.1-17.3 -16.1 17.3c0 0 0.6 5.2 8.5 5.7l7.6-23 -7.2 22 28.8 9.1"/>
  </g>
  <g id="main_windows">
    <path id="wR" class="st4" d="M458.2 592.3l60.4 1.9 9.3-99.6c0 0-15.8-8.5-34-8.2 -18.2 0.3-34.2 8.3-34.2 8.3L458.2 592.3l23.1 0.7 1.6-32.7 -24.2-0.2 0.1-9 25.5 0.2 3.6-64.6 11.1-0.1 -5.1 64.6 28.7 0.1 -0.9 9.1 -28-0.3 -2 33.3"/>
    <path id="wL" class="st3" d="M254 590.5h-54l-9.8-93.2c0 0 7.5-10.6 25.8-11.4s32.5 4.6 32.5 4.6L254 590.5h-21.8l-4.1-30.7 23.9 0.6 -0.5-9.1 -24.8-0.3 -5.7-65.2 -5 0.1 -4.6 0.4 6.2 64.4 -21.7 0 1 9.7 21.3-0.1 3.6 30.3"/>
  </g>
</svg>
