<?xml version="1.0" encoding="UTF-8" standalone="no"?>
<svg id="svg2" xmlns:rdf="http://www.w3.org/1999/02/22-rdf-syntax-ns#" xmlns="http://www.w3.org/2000/svg" height="100.57mm" width="70.856mm" version="1.1" xmlns:cc="http://creativecommons.org/ns#" xmlns:dc="http://purl.org/dc/elements/1.1/" viewBox="0 0 251.06493 356.34136">
 <g id="layer1" fill="#b5d99c" transform="translate(-566.88 -1426)">
  <path id="path5966" opacity="0.97" d="m693.69 1427.1 109.75 158.41 0.2262-0.3265 13.102 18.911-122.63 177-0.3902-37.258 86.56-124.94-86.841 0.5176-0.0001-26.729 88.371-0.5276-88.54-127.8 0.3903-37.258z"/>
  <path id="path5968" opacity="0.97" d="m648.31 1491.4 0.3903 37.258-54.386 78.5 30.567 44.121 44.614-64.395 13.332 19.243-44.614 64.395 33.39 48.196 54.386-78.5 25.813 0.5634-80.255 115.84-0.6772-0.9775-0.057 0.082-91.837-132.56 0.011-0.1469-10.933-15.781 80.255-115.84z"/>
  <path id="path5970" d="m735.82 1571.1-43.227-68.541v67.05z" fill-rule="evenodd"/>
 </g>
</svg>
